# xmcd
#
# Track frame offsets: 
#        150
#        17625
#        31365
#        42750
#        53218
#        66583
#        81235
#        94045
#        107135
#        120925
#        136030
#        148353
#        164263
#        176925
#        190615
#        204528
#        216838
#        235903
#
# Disc length: 3342 seconds
#
# Revision: 1
# Processed by: cddbd v1.5.2PL0 Copyright (c) Steve Scherf et al.
# Submitted via: ExactAudioCopy v0.99pb5
#
DISCID=010d0c12
DTITLE=Various Artist - RCD Blues Collection 16
DYEAR=1993
DGENRE=Blues
TTITLE0=Johnny Taylor -  Part Time Love
TTITLE1=Al Simmons and the Cats from Fresno - Old Folks Boogie
TTITLE2=Walter 'Mumbles' Horton -  What's the Matter with You
TTITLE3=Jimmy Anderson -  Naggin'
TTITLE4=John Lee Hooker - I need lovin'
TTITLE5=Jimmy Witherspoon -  Going Around in Circles
TTITLE6=BB King -  Please Love Me
TTITLE7=Elmore James - Hand in Hand
TTITLE8=Little George Smith -  Telephone Blues
TTITLE9=Smokey Wilson -  How many more times
TTITLE10=Albert King -  Heart Fixin Business
TTITLE11=Lowell Fulsom -  Black Nights
TTITLE12=Johnny Guitar Watson -  Hot Little Mama
TTITLE13=BB King - Three o'clock blues
TTITLE14=Slim Harpo - I'm a king bee
TTITLE15=Lightnin' Hopkins -  Lonesome Dog Blues
TTITLE16=Howlin' Wolf -  House Rocking Boogie
TTITLE17=Elmore James -  Sunnyland
EXTD=YEAR: 1993 ID3G: 0
EXTT0=
EXTT1=
EXTT2=
EXTT3=
EXTT4=
EXTT5=
EXTT6=
EXTT7=
EXTT8=
EXTT9=
EXTT10=
EXTT11=
EXTT12=
EXTT13=
EXTT14=
EXTT15=
EXTT16=
EXTT17=
PLAYORDER=
